<?xml version="1.0" encoding="utf-8"?>
<!-- Generator: Adobe Illustrator 25.0.0, SVG Export Plug-In . SVG Version: 6.00 Build 0)  -->
<svg version="1.1" id="Layer_1" xmlns="http://www.w3.org/2000/svg" xmlns:xlink="http://www.w3.org/1999/xlink" x="0px" y="0px"
	 viewBox="0 0 427 856" style="enable-background:new 0 0 427 856;" xml:space="preserve">
<style type="text/css">
	.st0{fill:#3F3D3D;}
</style>
<g>
	<path d="M358.7,0H69.3C31.3,0,0.5,30.8,0.5,68.8v718.4c0,38,30.8,68.8,68.8,68.8h289.4c38,0,68.8-30.8,68.8-68.8V68.8
		C427.5,30.8,396.7,0,358.7,0z M403.5,787.2c0,24.7-20.1,44.8-44.8,44.8H69.3c-24.7,0-44.8-20-44.8-44.8V68.8
		C24.5,44,44.5,24,69.3,24h37.4c2.7,0,4.8,2.1,4.8,4.8v10.6c0,8.1,6.5,14.6,14.6,14.6h177.9c8,0,14.6-6.5,14.6-14.5V28.7
		c0-2.6,2.1-4.7,4.7-4.7h35.5c24.7,0,44.8,20,44.8,44.8V787.2z"/>
</g>
<g>
	<path class="st0" d="M242.5,31h-57c-1.9,0-3.5-1.6-3.5-3.5v0c0-1.9,1.6-3.5,3.5-3.5h57c1.9,0,3.5,1.6,3.5,3.5v0
		C246,29.4,244.4,31,242.5,31z"/>
</g>
<g>
	<circle class="st0" cx="265.5" cy="27.5" r="4.5"/>
</g>
<g>
	<path d="M165.3,299.6l-9.7,18.6c-2.6,5.1-4.9,9.5-6.8,13.9h-0.2c-2.1-4.7-4.1-8.8-6.7-13.9l-9.5-18.6h-9.9l21.3,38.8V367h8.8v-28.7
		l22.6-38.7H165.3z"/>
	<path d="M195.5,317.5c-13.4,0-24,9.5-24,25.7c0,15.3,10.1,24.9,23.2,24.9c11.7,0,24.1-7.8,24.1-25.7
		C218.8,327.6,209.4,317.5,195.5,317.5z M195.1,361.5c-8.6,0-14.7-8-14.7-18.6c0-9.2,4.5-18.8,14.9-18.8s14.5,10.4,14.5,18.6
		C209.8,353.6,203.5,361.5,195.1,361.5z"/>
	<path d="M270.4,353.8v-35.2h-8.8v29.7c0,1.6-0.3,3.2-0.8,4.5c-1.6,3.9-5.7,8-11.6,8c-8,0-10.8-6.2-10.8-15.4v-26.8h-8.8v28.3
		c0,17,9.1,21.2,16.7,21.2c8.6,0,13.7-5.1,16-9h0.2l0.5,7.9h7.8C270.5,363.2,270.4,358.8,270.4,353.8z"/>
	<path d="M306.4,317.5c-5.9,0-11.2,4.1-13.4,10.6h-0.4l-0.3-9.5h-7.7c0.3,4.5,0.4,9.4,0.4,15.1V367h8.7v-25.8c0-1.5,0.2-2.9,0.4-4.1
		c1.2-6.6,5.6-11.3,11.8-11.3c1.2,0,2.1,0.1,3,0.3v-8.3C308.1,317.6,307.4,317.5,306.4,317.5z"/>
	<path d="M85.7,480.7c-16.4,0-25.9-10.6-25.9-27.1c0-17.7,10.5-27.8,26.3-27.8c5.6,0,10.3,1.2,13.6,2.8l2.1-7.1c-2.3-1.2-7.6-3-16-3
		c-20.9,0-35.2,14.3-35.2,35.4c0,22.1,14.3,34.1,33.3,34.1c8.2,0,14.6-1.6,17.8-3.2l-1.8-6.9C96.4,479.6,91,480.7,85.7,480.7z"/>
	<path d="M131.7,437.5c-13.4,0-24,9.5-24,25.7c0,15.3,10.1,24.9,23.2,24.9c11.7,0,24.1-7.8,24.1-25.7
		C155,447.6,145.6,437.5,131.7,437.5z M131.3,481.5c-8.6,0-14.7-8-14.7-18.6c0-9.2,4.5-18.8,14.9-18.8c10.4,0,14.5,10.4,14.5,18.6
		C146,473.6,139.7,481.5,131.3,481.5z"/>
	<path d="M190.2,437.5c-8,0-13.6,4.5-16,9.1H174l-0.5-8h-7.8c0.3,4,0.4,8.1,0.4,13.1V487h8.8v-29.1c0-1.5,0.2-3,0.6-4.1
		c1.5-4.9,6-9,11.8-9c8.3,0,11.2,6.5,11.2,14.3V487h8.8v-28.9C207.3,441.5,196.9,437.5,190.2,437.5z"/>
	<path d="M244.4,445.3v-6.7h-12.6v-13.9l-8.6,2.3v11.6h-7.5v6.7h7.5v26.4c0,5.7,0.9,10,3.4,12.6c2.1,2.4,5.4,3.7,9.5,3.7
		c3.4,0,6.1-0.5,7.8-1.2l-0.4-6.6c-1.1,0.3-2.8,0.6-5.1,0.6c-4.9,0-6.6-3.4-6.6-9.4v-26.1H244.4z"/>
	<path d="M292.9,460.3c0-8.9-4.2-22.8-20-22.8c-14.1,0-22.7,11.5-22.7,26.1c0,14.6,8.9,24.4,23.8,24.4c7.7,0,13-1.6,16.1-3l-1.5-6.3
		c-3.3,1.4-7.1,2.5-13.4,2.5c-8.8,0-16.4-4.9-16.6-16.8h34C292.7,463.5,292.9,462.1,292.9,460.3z M258.7,458.1
		c0.7-6.1,4.6-14.3,13.5-14.3c9.9,0,12.3,8.7,12.2,14.3H258.7z"/>
	<path d="M327.9,437.5c-8,0-13.6,4.5-16,9.1h-0.2l-0.5-8h-7.8c0.3,4,0.4,8.1,0.4,13.1V487h8.8v-29.1c0-1.5,0.2-3,0.6-4.1
		c1.5-4.9,6-9,11.8-9c8.3,0,11.2,6.5,11.2,14.3V487h8.8v-28.9C345,441.5,334.6,437.5,327.9,437.5z"/>
	<path d="M382.1,445.3v-6.7h-12.6v-13.9l-8.6,2.3v11.6h-7.5v6.7h7.5v26.4c0,5.7,0.9,10,3.4,12.6c2.1,2.4,5.4,3.7,9.5,3.7
		c3.4,0,6.1-0.5,7.8-1.2l-0.4-6.6c-1.1,0.3-2.8,0.6-5.1,0.6c-4.9,0-6.6-3.4-6.6-9.4v-26.1H382.1z"/>
</g>
</svg>
