<?xml version="1.0" encoding="utf-8"?>
<!-- Generator: Adobe Illustrator 23.0.1, SVG Export Plug-In . SVG Version: 6.00 Build 0)  -->
<svg version="1.1" id="Layer_1" focusable="false" xmlns="http://www.w3.org/2000/svg" xmlns:xlink="http://www.w3.org/1999/xlink"
	 x="0px" y="0px" viewBox="0 0 512 512" style="enable-background:new 0 0 512 512;" xml:space="preserve">
<style type="text/css">
	.st0{fill:none;stroke:#F7F5E6;stroke-miterlimit:10;}
	.st1{fill:none;stroke:#F7F5E6;stroke-width:10;stroke-miterlimit:10;}
</style>
<path class="st0" d="M397.4,151H114.6c-18,0-32.6,13.4-32.6,30v180c0,16.6,14.6,30,32.6,30h282.8c18,0,32.6-13.4,32.6-30V181
	C430,164.4,415.4,151,397.4,151z M397.4,181v25.5c-15.2,11.4-39.5,29.2-91.5,66.6c-11.4,8.3-34.1,28.2-49.9,27.9
	c-15.8,0.2-38.5-19.7-49.9-27.9c-51.9-37.4-76.2-55.1-91.5-66.6V181H397.4z M114.6,361V245c15.6,11.4,37.7,27.4,71.3,51.7
	c14.9,10.8,40.9,34.5,70,34.3c29,0.1,54.7-23.2,70-34.3c33.7-24.2,55.8-40.3,71.3-51.7v116H114.6z"/>
<circle class="st1" cx="265.3" cy="269.3" r="226.3"/>
</svg>
