<?xml version="1.0" encoding="utf-8"?>
<!-- Generator: Adobe Illustrator 23.0.1, SVG Export Plug-In . SVG Version: 6.00 Build 0)  -->
<svg version="1.1" id="Layer_1" xmlns="http://www.w3.org/2000/svg" xmlns:xlink="http://www.w3.org/1999/xlink" x="0px" y="0px"
	 viewBox="0 0 200 200" style="enable-background:new 0 0 200 200;" xml:space="preserve">
<style type="text/css">
	.st0{fill:#F7F5E6;}
	.st1{fill:none;stroke:#F7F5E6;stroke-width:7;stroke-miterlimit:10;}
</style>
<g>
	<g id="XMLID_122_">
		<g>
			<path class="st0" d="M140.2,91.9c0.4-2.6,0.7-5.5,0.8-8.8c0-13.9-6.8-18.8-8.1-21.1c1.9-10.5-0.3-15.3-1.4-17
				c-3.9-1.3-13.4,3.5-18.6,6.8c-8.5-2.4-26.5-2.2-33.2,0.6c-12.4-8.7-19-7.4-19-7.4s-4.3,7.5-1.1,18.4c-4.1,5.1-7.1,8.7-7.1,18.3
				c0,2.3,0.1,4.5,0.4,6.6c3.5,18.2,18.2,26,32.7,27.3c-2.2,1.6-4.8,4.7-5.1,8.2c-2.7,1.7-8.2,2.3-12.5,1c-6-1.9-8.3-13.5-17.2-11.8
				c-1.9,0.4-1.6,1.6,0.1,2.7c2.7,1.7,5.3,3.9,7.3,8.5c1.5,3.5,4.7,9.9,14.8,9.9c4,0,6.8-0.5,6.8-0.5s0.1,9,0.1,12.5
				c0,4-5.6,5.2-5.6,7.1c0,0.8,1.8,0.8,3.3,0.8c2.9,0,9-2.4,9-6.6c0-3.3,0.1-14.6,0.1-16.5c0-4.3,2.4-5.7,2.4-5.7s0.3,23-0.6,26
				c-1,3.6-2.8,3.1-2.8,4.7c0,2.4,7.3,0.6,9.8-4.7c1.9-4.1,1-26.6,1-26.6l2,0c0,0,0,10.3,0,15c-0.1,4.9-0.6,11,2.4,14
				c1.9,1.9,7.9,5.3,7.9,2.2c0-1.8-4.2-3.2-4.2-8.1v-22.2c2.5,0,3.1,7.3,3.1,7.3l0.9,13.6c0,0-0.6,4.9,5.5,7
				c2.1,0.7,6.7,0.9,6.9-0.3c0.2-1.2-5.5-3.1-5.6-6.9c0-2.3,0.1-3.7,0.1-13.8c0-10.1-1.4-13.9-6.2-16.9
				C123,114.2,137.6,108,140.2,91.9z"/>
		</g>
	</g>
	<ellipse class="st1" cx="99.5" cy="100.5" rx="94.5" ry="92.5"/>
</g>
</svg>
