<?xml version="1.0" encoding="utf-8"?>
<!-- Generator: Adobe Illustrator 23.0.1, SVG Export Plug-In . SVG Version: 6.00 Build 0)  -->
<svg version="1.1" id="Layer_1" xmlns="http://www.w3.org/2000/svg" xmlns:xlink="http://www.w3.org/1999/xlink" x="0px" y="0px"
	 viewBox="0 0 200 200" style="enable-background:new 0 0 200 200;" xml:space="preserve">
<style type="text/css">
	.st0{fill:#F7F5E6;}
	.st1{fill:none;stroke:#F7F5E6;stroke-width:7;stroke-miterlimit:10;}
</style>
<path class="st0" d="M51.6,147.3h96.1c6,0,10.8-4.9,10.8-10.8V68.8c0-6-4.9-10.8-10.8-10.8H51.6c-6,0-10.8,4.9-10.8,10.8v67.6
	C40.8,142.4,45.7,147.3,51.6,147.3z M47.9,68.8c0-2.1,1.7-3.8,3.8-3.8h96.1c2.1,0,3.8,1.7,3.8,3.8v67.6c0,2.1-1.7,3.8-3.8,3.8H51.6
	c-2.1,0-3.8-1.7-3.8-3.8V68.8z M61.8,135.3h-7V70.3l44,28.6c0.5,0.3,1.2,0.3,1.8,0l44-28.6v64.9h-7V83.3l-33.1,21.5
	c-1.4,0.9-3,1.4-4.7,1.4s-3.3-0.5-4.7-1.4L61.8,83.3V135.3z"/>
<circle class="st1" cx="100" cy="100" r="94.5"/>
</svg>
