<?xml version="1.0" encoding="utf-8"?>
<!-- Generator: Adobe Illustrator 25.0.0, SVG Export Plug-In . SVG Version: 6.00 Build 0)  -->
<svg version="1.1" xmlns="http://www.w3.org/2000/svg" xmlns:xlink="http://www.w3.org/1999/xlink" x="0px" y="0px"
	 viewBox="0 0 595.3 841.9" style="enable-background:new 0 0 595.3 841.9;" xml:space="preserve">
<style type="text/css">
	.st0{display:none;}
	.st1{fill:#838383;}
	.st2{fill:url(#SVGID_1_);}
	.st3{fill:#EBA478;}
	.st4{fill:url(#SVGID_2_);}
	.st5{fill:none;}
	.st6{fill:url(#SVGID_3_);}
	.st7{fill:url(#SVGID_4_);}
	.st8{fill:#FFFFFF;}
	.st9{display:inline;fill:#FFBB2E;}
	.st10{display:inline;stroke:#000000;stroke-width:1.3488;stroke-linecap:round;stroke-linejoin:round;stroke-miterlimit:10;}
</style>
<g id="Layer_1" class="st0">
	
		<image style="display:inline;overflow:visible;opacity:0.6;" width="480" height="360" xlink:href="78B9FD1A.jpg"  transform="matrix(3.5044 0 0 3.5044 -543.4147 -263.5283)">
	</image>
</g>
<g id="Layer_2">
	<g>
		<path class="st1" d="M388.6,126.8c-0.2-0.5-0.5-1-0.7-1.5c0.4,0.9,0.8,1.7,1.1,2.7C388.8,127.6,388.7,127.2,388.6,126.8z"/>
		<radialGradient id="SVGID_1_" cx="297.7273" cy="154.6481" r="113.5672" gradientUnits="userSpaceOnUse">
			<stop  offset="0" style="stop-color:#FFA66E"/>
			<stop  offset="0.5024" style="stop-color:#A7704E"/>
			<stop  offset="0.7651" style="stop-color:#7D573F"/>
			<stop  offset="0.9749" style="stop-color:#573C2C"/>
		</radialGradient>
		<path class="st2" d="M411.1,148.7c-0.5-10.8-2.6-21.3-6.1-31.1c-14.8-42.6-54.5-74-101.4-76.4c-51.2-2.6-95.5,28.8-112.3,73.6
			c-5.3,14.1-7.9,29.6-7,45.8c0.5,8.9,2,17.6,4.4,25.9c13.3,45.3,54.3,79.1,103.1,81.6c11.7,0.6,23-0.6,33.7-3.2
			c38.7-9.7,69.5-39.3,81-77.2C410.1,175.4,411.8,162.3,411.1,148.7z M297.7,249.7c-52.5,0-95-42.5-95-95c0-1.7,0-3.4,0.1-5.1
			c0.1-1.4,0.2-2.9,0.3-4.3c0.1-0.9,0.2-1.7,0.3-2.6c0-0.2,0-0.3,0.1-0.5c0.1-0.9,0.2-1.8,0.4-2.7c0.2-1.3,0.4-2.6,0.7-3.9
			c0,0,0-0.1,0-0.1c0.1-0.5,0.2-0.9,0.3-1.3c0.1-0.3,0.2-0.7,0.3-1c0.7-2.9,1.6-5.7,2.9-8.3c1.1-2.5,2.5-4.8,4.2-7
			c0,0,0-0.1,0.1-0.1c0.6-0.7,1.1-1.5,1.7-2.2c1.5-1.7,3-3.3,4.7-4.8c0.4-0.3,0.8-0.7,1.2-1c0.1-0.1,0.2-0.2,0.3-0.3
			c0.8-0.7,1.6-1.3,2.5-1.9c0.5-0.3,0.9-0.6,1.4-1c0.9-0.6,1.9-1.2,2.9-1.7c0.4-0.2,0.8-0.5,1.3-0.7c0.6-0.3,1.1-0.6,1.7-0.9
			c0.8-0.4,1.5-0.7,2.3-1c1.7-0.7,3.4-1.3,5.1-1.7c0.7-0.2,1.5-0.4,2.2-0.6c0.8-0.2,1.5-0.3,2.3-0.5l0.5-0.1
			c0.8-0.1,1.6-0.2,2.4-0.3c0.7-0.1,1.4-0.1,2.1-0.2c0.3,0,0.5,0,0.8,0c0.8,0,1.6-0.1,2.4-0.1c26.3,0,47.5,21.3,47.5,47.5
			c0-26.3,21.3-47.5,47.5-47.5c0.7,0,1.4,0,2,0c0.5,0,1,0,1.5,0.1c1.1,0.1,2.2,0.2,3.3,0.4c0.6,0.1,1.1,0.2,1.7,0.3
			c0.4,0,0.7,0.1,1,0.2c0.3,0,0.7,0.1,1,0.2c0.5,0.1,1.1,0.2,1.7,0.4c0.5,0.1,1.1,0.3,1.7,0.5c0.5,0.2,1.1,0.3,1.6,0.5
			c0.5,0.2,1.1,0.4,1.6,0.6c1.7,0.7,3.3,1.4,4.9,2.2c0.4,0.2,0.8,0.4,1.2,0.7c0.5,0.2,1,0.5,1.5,0.8c1.5,0.9,2.8,1.8,4.2,2.9
			c0.9,0.7,1.7,1.4,2.6,2.1c0.4,0.4,0.8,0.7,1.2,1.1c0.8,0.8,1.6,1.6,2.4,2.4c0.4,0.4,0.7,0.8,1,1.2c0.4,0.5,0.8,0.9,1.1,1.4
			c0.3,0.4,0.7,0.9,1,1.3c0,0,0,0.1,0.1,0.1c0.6,0.9,1.2,1.8,1.8,2.7c0,0,0,0,0,0c0.3,0.5,0.6,1,0.9,1.4c0.6,1,1.1,2,1.6,3
			c0.2,0.5,0.5,1,0.7,1.5c0.1,0.4,0.2,0.8,0.4,1.2c0.1,0.2,0.1,0.4,0.2,0.6c0.1,0.3,0.2,0.6,0.2,0.9c0.2,0.9,0.5,1.8,0.7,2.8
			c0.2,0.9,0.5,1.9,0.6,2.8c0.2,1,0.4,1.9,0.5,2.8c0.1,0.7,0.3,1.5,0.4,2.2c0.1,0.4,0.1,0.9,0.2,1.3c0.1,0.9,0.2,1.7,0.3,2.6
			c0.2,1.8,0.3,3.6,0.4,5.4c0.1,1.7,0.1,3.4,0.1,5.1C392.7,207.1,350.2,249.7,297.7,249.7z"/>
		<path class="st3" d="M392.6,149.5c-0.1-1.8-0.2-3.6-0.4-5.4c-0.1-0.9-0.2-1.7-0.3-2.6c0-0.5-0.1-0.9-0.2-1.3
			c-0.1-0.7-0.2-1.5-0.4-2.2c-0.2-1-0.3-1.9-0.5-2.8c-0.2-0.9-0.4-1.9-0.6-2.8c-0.2-0.9-0.5-1.8-0.7-2.8c-0.1-0.3-0.2-0.6-0.2-0.9
			c-0.1-0.2-0.1-0.4-0.2-0.6c-0.3-0.9-0.6-1.8-1.1-2.7c-0.5-1-1-2-1.6-3c-0.3-0.5-0.6-1-0.9-1.4c0,0,0,0,0,0
			c-0.6-0.9-1.2-1.8-1.8-2.7c0,0-0.1-0.1-0.1-0.1c-0.3-0.4-0.7-0.9-1-1.3c-0.4-0.5-0.7-0.9-1.1-1.4c-0.3-0.4-0.7-0.8-1-1.2
			c-0.7-0.8-1.5-1.6-2.4-2.4c-0.4-0.4-0.8-0.7-1.2-1.1c-0.8-0.7-1.7-1.5-2.6-2.1c-1.3-1-2.7-2-4.2-2.9c-0.5-0.3-1-0.6-1.5-0.8
			c-0.4-0.2-0.8-0.5-1.2-0.7c-1.6-0.8-3.2-1.6-4.9-2.2c-0.5-0.2-1.1-0.4-1.6-0.6c-0.5-0.2-1.1-0.4-1.6-0.5c-0.6-0.2-1.1-0.3-1.7-0.5
			c-0.6-0.2-1.1-0.3-1.7-0.4c-0.3-0.1-0.7-0.2-1-0.2c-0.3-0.1-0.7-0.2-1-0.2c-0.5-0.1-1.1-0.2-1.7-0.3c-1.1-0.2-2.2-0.3-3.3-0.4
			c-0.5,0-1-0.1-1.5-0.1c-0.7,0-1.4,0-2,0c-26.3,0-47.5,21.3-47.5,47.5c0-26.3-21.3-47.5-47.5-47.5c-0.8,0-1.6,0-2.4,0.1
			c-0.3,0-0.6,0-0.8,0c-0.7,0-1.4,0.1-2.1,0.2c-0.8,0.1-1.6,0.2-2.4,0.3l-0.5,0.1c-0.8,0.1-1.6,0.3-2.3,0.5
			c-0.7,0.2-1.5,0.3-2.2,0.6c-1.7,0.5-3.5,1.1-5.1,1.7c-0.8,0.3-1.6,0.7-2.3,1c-0.6,0.3-1.2,0.5-1.7,0.9c-0.4,0.2-0.9,0.5-1.3,0.7
			c-1,0.5-2,1.1-2.9,1.7c-0.5,0.3-0.9,0.6-1.4,1c-0.8,0.6-1.7,1.2-2.5,1.9c-0.1,0.1-0.2,0.2-0.3,0.3c-0.4,0.3-0.8,0.7-1.2,1
			c-1.7,1.5-3.2,3.1-4.7,4.8c-0.6,0.7-1.2,1.5-1.7,2.2c0,0,0,0.1-0.1,0.1c-1.6,2.2-3,4.6-4.1,7.1c-1.2,2.6-2.2,5.4-2.9,8.3
			c-0.2,0.8-0.4,1.6-0.5,2.4c0,0,0,0.1,0,0.1c-0.3,1.3-0.5,2.6-0.7,3.9c-0.2,0.9-0.3,1.8-0.4,2.7c0,0.2,0,0.3-0.1,0.5
			c-0.1,0.8-0.2,1.7-0.3,2.6c-0.2,1.4-0.3,2.9-0.3,4.3c-0.1,1.7-0.1,3.4-0.1,5.1c0,52.5,42.5,95,95,95s95-42.5,95-95
			C392.7,152.9,392.7,151.2,392.6,149.5z M265.4,164.7c-2.9,4.1-8.6,5.1-12.7,2.2c-4.1-2.9-5.1-8.6-2.2-12.7
			c2.9-4.1,8.6-5.1,12.7-2.2C267.3,154.9,268.3,160.6,265.4,164.7z M345.9,164.7c-1.8,2.6-4.7,3.9-7.6,3.9h0c-1.5,0-3-0.5-4.4-1.3
			c-0.2-0.1-0.4-0.2-0.6-0.4c-4.1-2.9-5.1-8.6-2.2-12.7c2.9-4.1,8.6-5.1,12.7-2.2C347.8,154.9,348.8,160.6,345.9,164.7z"/>
		<path class="st1" d="M265.4,164.7c-2.9,4.1-8.6,5.1-12.7,2.2c-4.1-2.9-5.1-8.6-2.2-12.7c2.9-4.1,8.6-5.1,12.7-2.2
			C267.3,154.9,268.3,160.6,265.4,164.7z"/>
		<path class="st1" d="M345.9,164.7c-1.8,2.6-4.7,3.9-7.6,3.9h0c-1.5,0-3-0.5-4.4-1.3c-0.2-0.1-0.4-0.2-0.6-0.4
			c-4.1-2.9-5.1-8.6-2.2-12.7c2.9-4.1,8.6-5.1,12.7-2.2C347.8,154.9,348.8,160.6,345.9,164.7z"/>
		<path class="st1" d="M389,128c-0.3-0.9-0.6-1.8-1.1-2.7c0.2,0.5,0.5,1,0.7,1.5C388.7,127.2,388.8,127.6,389,128z"/>
		<radialGradient id="SVGID_2_" cx="168.0124" cy="150.3327" r="54.0496" gradientUnits="userSpaceOnUse">
			<stop  offset="0" style="stop-color:#57290C"/>
			<stop  offset="0.1175" style="stop-color:#5E2E10"/>
			<stop  offset="0.2855" style="stop-color:#713C1B"/>
			<stop  offset="0.4838" style="stop-color:#8F532D"/>
			<stop  offset="0.7052" style="stop-color:#BA7346"/>
			<stop  offset="0.943" style="stop-color:#F19B66"/>
			<stop  offset="1" style="stop-color:#FFA66E"/>
		</radialGradient>
		<path class="st4" d="M184.3,160.6c0.5,8.9,2,17.6,4.4,25.9c-2.3,0.5-4.7,0.7-7.2,0.7c-3.7,0-7.3-0.5-10.7-1.6h0
			c-15.8-4.8-27.1-19.9-26.1-37.4c1-18.5,17.8-34.5,36.3-34.7c3.6,0,7,0.4,10.3,1.3C186.1,128.9,183.5,144.4,184.3,160.6z"/>
		<path class="st5" d="M208.1,124.8C208.1,124.8,208.1,124.8,208.1,124.8"/>
		<path d="M265.4,164.7c-2.9,4.1-8.6,5.1-12.7,2.2c-4.1-2.9-5.1-8.6-2.2-12.7c2.9-4.1,8.6-5.1,12.7-2.2
			C267.3,154.9,268.3,160.6,265.4,164.7z"/>
		<path d="M345.9,164.5c-2.9,4.1-8.6,5.1-12.7,2.2c-4.1-2.9-5.1-8.6-2.2-12.7c2.9-4.1,8.6-5.1,12.7-2.2
			C347.8,154.8,348.8,160.4,345.9,164.5z"/>
		
			<radialGradient id="SVGID_3_" cx="429.6351" cy="152.3544" r="51.105" gradientTransform="matrix(6.799812e-02 0.9977 -1.2774 8.706132e-02 595.0359 -289.5505)" gradientUnits="userSpaceOnUse">
			<stop  offset="2.793296e-03" style="stop-color:#4F3727"/>
			<stop  offset="0.4134" style="stop-color:#694935"/>
			<stop  offset="1" style="stop-color:#FF934F"/>
		</radialGradient>
		<path class="st6" d="M454.1,149.5c1.3,17-9,31.9-23.9,37.4c-4,1.5-8.4,2.3-12.9,2.3c-3.8,0-7.5-0.6-10.9-1.6
			c3.7-12.2,5.4-25.3,4.7-38.8c-0.5-10.8-2.6-21.3-6.1-31.1c4.8-1.7,10.1-2.5,15.6-2C437.5,117.1,452.8,132.7,454.1,149.5z"/>
		
			<radialGradient id="SVGID_4_" cx="297.6378" cy="427.0948" r="249.503" gradientTransform="matrix(1 0 0 0.799 0 85.844)" gradientUnits="userSpaceOnUse">
			<stop  offset="0" style="stop-color:#FAA96E"/>
			<stop  offset="0.8387" style="stop-color:#6B4B36"/>
			<stop  offset="1" style="stop-color:#523929"/>
		</radialGradient>
		<path class="st7" d="M556.1,408.8c0,140.2-111.7,254.3-250.9,258.3C154.5,671.5,33.6,549.5,39.4,398.8c0.6-17,2.3-30.3,6-46.3
			c0.8-3.3,0.8-3.3,0.8-3.3c-0.2,13.2,1.6,24.3,3,32.3C65.4,477.4,167.8,600.9,275.2,602c33,0.3,66.2-10.1,66.2-10.1
			c10.3-3.2,44.5-14.8,79.2-44.4c18.5-15.8,32.3-32.6,42.5-47.8c15.8-23.5,20.3-38.3,21.9-44.9c1.7-6.7,2.4-12.5,2.8-16.6
			c0,0,0,0,0,0c-11.5,24.6-43.6,84.1-111.7,116.5c-17.7,8.4-34.8,13.5-49.8,16.6c-3.6,0.7-6.6-2.6-5.5-6
			c12.6-41.2,25.1-99.7,23.5-170.1c-1.1-52.1-9.7-96.3-18.9-130.4c0,0,0,0,0,0c38.7-9.7,69.5-39.3,80.9-77.2c0,0,0,0,0,0
			c3.4,1.1,7.1,1.6,10.9,1.6c4.5,0,8.9-0.8,12.9-2.3c0,0,0,0,0,0C505.6,232,556.1,314.5,556.1,408.8z"/>
		<path class="st5" d="M338.3,168.6c-1.5-0.5-2.9-0.9-4.4-1.3"/>
		<circle class="st8" cx="261.9" cy="159.3" r="5.1"/>
		<circle class="st8" cx="342.5" cy="159.3" r="5.1"/>
	</g>
	<path d="M262.2,199.9c4.5,5.5,10,10,16,13.3c1.5,0.8,3.1,1.5,4.6,2.2c0.8,0.3,1.6,0.6,2.4,0.8c0.4,0.1,0.8,0.3,1.2,0.4l1.2,0.3
		c0.8,0.2,1.6,0.5,2.5,0.6l2.5,0.4c0.8,0.2,1.7,0.1,2.5,0.2c0.8,0,1.7,0.1,2.5,0.1c6.7,0,13.4-1.7,19.4-5c6-3.3,11.4-7.8,16-13.3
		c-3.2,6.4-8.3,11.9-14.4,15.9c-3,2.1-6.5,3.5-10,4.7c-0.9,0.3-1.8,0.5-2.7,0.7c-0.9,0.2-1.8,0.3-2.8,0.4l-1.4,0.2
		c-0.5,0.1-0.9,0.1-1.4,0.1l-2.8,0.1c-7.4-0.1-14.9-2.2-21-6.3C270.5,211.9,265.4,206.3,262.2,199.9z"/>
</g>
<g id="Layer_3" class="st0">
	<path class="st9" d="M223.9,108.7c0.2,1.2,1,2.1,2.2,2.3c14.4,2.7,35.6,8.5,58,22.1c29.9,18.2,46.1,40.7,56.7,55.6
		c11.9,16.8,29.7,42.6,36.4,81.3c2.2,12.8,8.9,54.4-10.7,97.3c-8.9,19.4-21.1,34.7-26.7,41.7c-10.4,13-17.2,18.6-34.2,35.3
		c-26.8,26.3-40.1,39.4-46,48.1c-21.1,31.4-22.6,65.5-23.5,86.6c-0.7,16.3,0.1,40.8,8.6,69.5h18.2c-0.9-11.7-0.2-29.2,9.6-46
		c18.5-31.6,61.6-47.4,108-38.5c0.1,12.3-0.7,27.6-4.3,44.9c-3.1,15.2-7.5,28.1-11.8,38.5h15c37-58.8,50.8-112.1,56.7-145.4
		c28.5-161.9-54.6-287.3-72.7-313.3c-22-31.5-44.6-54.5-61-69.5c5,1.3,12.7,2.6,22.1,1.8c8.4-0.7,15.1-3,19.6-4.9
		c-2.8-3.1-8.2-8.1-16.4-11.2c-13.7-5.2-25.9-1.5-29.7-0.2c-0.7-0.6-3.5-3-4.2-7.2c-0.5-3.4,0.6-6,1.1-7c-2.3-0.1-4.6-0.2-6.9-0.2
		c2.7,2.5,3.2,6.5,1.4,9.3c-1.8,2.9-5.5,3.7-8.1,2.9c-3.7-1.3-6.2-6.6-4.3-12.4h-7.6c1.9,3.3,4.7,9.2,2.4,12.8
		c-2,3.2-7,3.3-22.8,2.4c-7-0.4-14.7-1-23.2-1.7c-1.2-0.1-2.3,1-2.1,2.2L223.9,108.7z"/>
	<circle class="st10" cx="278.7" cy="112.2" r="3.4"/>
</g>
</svg>
