<?xml version="1.0" encoding="utf-8"?>
<!-- Generator: Adobe Illustrator 23.0.1, SVG Export Plug-In . SVG Version: 6.00 Build 0)  -->
<svg version="1.1" id="Layer_1" xmlns="http://www.w3.org/2000/svg" xmlns:xlink="http://www.w3.org/1999/xlink" x="0px" y="0px"
	 viewBox="0 0 200 200" style="enable-background:new 0 0 200 200;" xml:space="preserve">
<style type="text/css">
	.st0{fill:#F7F5E6;}
	.st1{fill:none;stroke:#F7F5E6;stroke-width:7;stroke-miterlimit:10;}
</style>
<path id="XMLID_1_" class="st0" d="M47.3,147.8h21.1V77.8H47.3V147.8z M129.4,76.5c-10.2,0-19.4,3.7-25.9,12v-9.8H82.4v70.3h21.2
	v-38c0-8,7.4-15.9,16.6-15.9s11.5,7.8,11.5,15.7v38.2h21.1v-39.8C152.8,81.6,139.6,76.5,129.4,76.5z M57.8,72
	c5.8,0,10.6-4.7,10.6-10.5s-4.8-10.6-10.6-10.6c-5.9,0-10.6,4.7-10.6,10.5S51.9,72,57.8,72z"/>
<circle class="st1" cx="100" cy="100" r="92.5"/>
</svg>
