<?xml version="1.0" encoding="utf-8"?>
<!-- Generator: Adobe Illustrator 25.0.0, SVG Export Plug-In . SVG Version: 6.00 Build 0)  -->
<svg version="1.1" id="Layer_1" xmlns="http://www.w3.org/2000/svg" xmlns:xlink="http://www.w3.org/1999/xlink" x="0px" y="0px"
	 viewBox="0 0 200 83.94" style="enable-background:new 0 0 200 83.94;" xml:space="preserve">
<style type="text/css">
	.st0{fill:#FFFFFF;stroke:#F6F5F6;stroke-width:2;stroke-miterlimit:10;}
	.st1{fill:#FFFFFF;stroke:#000000;stroke-miterlimit:10;}
	.st2{fill:url(#SVGID_1_);}
	.st3{fill:url(#SVGID_2_);}
	.st4{fill:none;}
	.st5{fill:none;stroke:url(#SVGID_3_);stroke-miterlimit:10;}
</style>
<g>
	<g>
		<line class="st0" x1="85.18" y1="69.3" x2="85.18" y2="81.8"/>
		<line class="st0" x1="114.28" y1="69.3" x2="114.28" y2="81.8"/>
		<line class="st0" x1="132.25" y1="81.8" x2="68.05" y2="81.8"/>
		<path class="st1" d="M196.24,69.3H4.06c-1.57,0-2.83-1.31-2.83-2.92c0-2.18,0-4.37,0-6.55c0-1.98,0-3.96,0-5.94
			c0-16.57,0-33.14,0-49.71c0-1.61,1.27-2.92,2.83-2.92h192.18c1.57,0,2.83,1.31,2.83,2.92v50.77v11.43
			C199.07,67.99,197.8,69.3,196.24,69.3z"/>
		<path class="st1" d="M4.12,63c64.02,0.05,128.03,0.1,192.05,0.14"/>
		<polyline class="st1" points="6.49,19.43 6.49,6.93 17.21,6.93 		"/>
	</g>
	<g>
		<linearGradient id="SVGID_1_" gradientUnits="userSpaceOnUse" x1="22.9968" y1="32.7128" x2="65.6705" y2="32.7128">
			<stop  offset="0" style="stop-color:#FFFFFF"/>
			<stop  offset="0.0312" style="stop-color:#EDF6FD"/>
			<stop  offset="0.1254" style="stop-color:#C5E5F8"/>
			<stop  offset="0.2268" style="stop-color:#A2D7F4"/>
			<stop  offset="0.3353" style="stop-color:#84CCF2"/>
			<stop  offset="0.4534" style="stop-color:#6BC5EF"/>
			<stop  offset="0.586" style="stop-color:#56C0EE"/>
			<stop  offset="0.7448" style="stop-color:#48BEED"/>
			<stop  offset="1" style="stop-color:#43BDED"/>
		</linearGradient>
		<path class="st2" d="M65.67,14.69c0,0.96-0.01,1.73-0.02,2.31c-0.01,0.58-0.05,1.06-0.1,1.44c-0.06,0.38-0.15,0.7-0.27,0.95
			c-0.13,0.25-0.29,0.53-0.5,0.83c-0.27,0.37-0.59,0.73-0.96,1.06c-0.36,0.34-0.77,0.64-1.21,0.9c-0.44,0.26-0.91,0.47-1.38,0.64
			c-0.48,0.16-0.97,0.25-1.47,0.25c-0.87,0-1.49-0.27-1.86-0.8c-0.38-0.53-0.56-1.3-0.56-2.31c0-0.46,0.07-0.92,0.2-1.37
			c0.16-0.61,0.28-1.13,0.38-1.57c0.09-0.44,0.16-0.82,0.2-1.16c0.05-0.34,0.07-0.65,0.09-0.95c0.01-0.29,0.02-0.61,0.02-0.93
			c0-0.5-0.12-0.84-0.36-1.01c-0.24-0.17-0.48-0.26-0.73-0.26c-0.87,0-1.84,0.16-2.94,0.49s-2.22,0.77-3.37,1.34
			c-1.15,0.57-2.29,1.23-3.42,2c-1.13,0.76-2.17,1.58-3.13,2.45c-1.82,1.68-3.51,3.52-5.07,5.51c-1.56,2-2.91,4.05-4.05,6.17
			c-1.14,2.12-2.03,4.24-2.66,6.38c-0.64,2.14-0.96,4.2-0.96,6.18c0,0.79,0.13,1.71,0.39,2.78c0.26,1.07,0.73,2.08,1.4,3.04
			c0.67,0.96,1.58,1.77,2.73,2.44c1.15,0.67,2.61,1,4.39,1c1.48,0,3.03-0.18,4.65-0.54c1.62-0.36,3.25-0.84,4.89-1.46
			c1.64-0.61,3.26-1.32,4.85-2.14c1.59-0.82,3.12-1.68,4.58-2.6c0.89-0.57,1.63-1.01,2.22-1.34c0.59-0.33,1.09-0.51,1.5-0.56
			c0.43,0,0.8,0.07,1.09,0.2c0.3,0.13,0.53,0.29,0.7,0.49c0.17,0.2,0.3,0.41,0.38,0.64c0.08,0.23,0.12,0.44,0.12,0.64
			c0,0.37-0.15,0.81-0.46,1.32c-0.31,0.51-0.7,1.03-1.18,1.55c-0.48,0.52-1,1.03-1.55,1.52c-0.56,0.49-1.08,0.91-1.55,1.26
			c-1.41,1.03-3,2.01-4.75,2.94c-1.75,0.94-3.58,1.76-5.48,2.47c-1.9,0.71-3.83,1.27-5.77,1.68c-1.95,0.41-3.81,0.62-5.59,0.62
			c-0.55,0-1.32-0.08-2.32-0.23c-1-0.15-2.1-0.44-3.3-0.85s-2.41-0.98-3.66-1.7c-1.24-0.72-2.36-1.65-3.37-2.78
			c-1-1.13-1.83-2.5-2.48-4.09C23.32,47.93,23,46.07,23,43.93c0-2.29,0.31-4.6,0.94-6.93c0.63-2.33,1.52-4.66,2.68-6.97
			c1.16-2.31,2.57-4.59,4.22-6.84c1.65-2.25,3.5-4.42,5.55-6.51c0.8-0.81,1.69-1.62,2.68-2.45c0.99-0.83,2.04-1.63,3.14-2.4
			c1.1-0.77,2.25-1.5,3.43-2.18c1.18-0.68,2.38-1.26,3.59-1.77c1.21-0.5,2.4-0.9,3.57-1.19c1.17-0.29,2.31-0.44,3.4-0.44
			c1.66,0,3.09,0.28,4.29,0.85c1.2,0.57,2.17,1.28,2.94,2.13c0.76,0.85,1.33,1.77,1.69,2.75C65.49,12.96,65.67,13.86,65.67,14.69z"
			/>
		<linearGradient id="SVGID_2_" gradientUnits="userSpaceOnUse" x1="65.6705" y1="32.8436" x2="116.2023" y2="32.8436">
			<stop  offset="0" style="stop-color:#FFFFFF"/>
			<stop  offset="0.0312" style="stop-color:#EDF6FD"/>
			<stop  offset="0.1254" style="stop-color:#C5E5F8"/>
			<stop  offset="0.2268" style="stop-color:#A2D7F4"/>
			<stop  offset="0.3353" style="stop-color:#84CCF2"/>
			<stop  offset="0.4534" style="stop-color:#6BC5EF"/>
			<stop  offset="0.586" style="stop-color:#56C0EE"/>
			<stop  offset="0.7448" style="stop-color:#48BEED"/>
			<stop  offset="1" style="stop-color:#43BDED"/>
		</linearGradient>
		<path class="st3" d="M116.2,26.89c0,2.79-1.14,5.56-3.42,8.31c-2.07,2.51-4.81,4.85-8.2,7.03c-1.5,0.98-3.13,1.92-4.89,2.83
			c-1.75,0.91-3.5,1.74-5.23,2.5c-1.75,0.76-3.41,1.43-4.97,2c-1.56,0.57-3.01,1.05-4.36,1.44c-0.93,0.28-1.95,0.64-3.04,1.06
			c-1.09,0.43-2.36,1-3.79,1.72c-0.64,0.33-1.3,0.59-1.98,0.8c-0.68,0.21-1.33,0.38-1.93,0.51c-0.6,0.13-1.14,0.22-1.62,0.28
			s-0.82,0.08-1.02,0.08c-1.37,0-2.54-0.37-3.52-1.11c-0.98-0.74-1.62-1.72-1.91-2.94c-0.23-0.92-0.39-1.69-0.5-2.32
			c-0.1-0.63-0.15-1.11-0.15-1.44c0-0.13,0.02-0.32,0.07-0.57c0.05-0.25,0.09-0.51,0.14-0.77c0.05-0.26,0.09-0.52,0.14-0.79
			c0.05-0.26,0.07-0.47,0.07-0.62c0-0.24,0.02-0.52,0.05-0.85c0.03-0.33,0.08-0.66,0.14-1.01c0.06-0.35,0.11-0.7,0.17-1.05
			c0.06-0.35,0.11-0.66,0.15-0.95c0.59-2.92,1.11-5.89,1.55-8.91c0.44-3.02,1.02-6.11,1.73-9.27c0.07-0.31,0.15-0.64,0.24-1.01
			c0.09-0.37,0.18-0.75,0.27-1.13c0.09-0.38,0.17-0.74,0.24-1.08c0.07-0.34,0.1-0.62,0.1-0.83c0-0.37-0.09-0.62-0.26-0.74
			c-0.17-0.12-0.4-0.28-0.7-0.47c-0.32-0.24-0.59-0.45-0.82-0.64c-0.23-0.18-0.42-0.37-0.56-0.56c-0.15-0.18-0.26-0.39-0.32-0.61
			c-0.07-0.22-0.1-0.48-0.1-0.79c0-0.48,0.13-1,0.39-1.55c0.26-0.56,0.61-1.07,1.06-1.54c0.44-0.47,0.96-0.86,1.54-1.18
			c0.58-0.32,1.19-0.47,1.83-0.47c0.48,0,1.1,0.03,1.88,0.08c0.77,0.05,1.55,0.12,2.32,0.2c0.77,0.08,1.47,0.14,2.1,0.2
			c0.63,0.05,1.03,0.08,1.21,0.08c1.66,0,3.54-0.07,5.62-0.2c2.08-0.13,4.16-0.2,6.24-0.2c2.98,0,5.77,0.28,8.37,0.83
			s4.97,1.42,7.11,2.6c0.48,0.26,1,0.58,1.57,0.95c0.57,0.37,1.15,0.82,1.74,1.36c0.59,0.53,1.18,1.17,1.76,1.91
			c0.58,0.74,1.12,1.64,1.62,2.68c0.59,1.22,1.05,2.36,1.38,3.42C116.04,25.22,116.2,26.13,116.2,26.89z M107.87,26.89
			c0-1.44-0.29-2.67-0.87-3.68c-0.58-1.01-1.34-1.87-2.29-2.57c-0.95-0.7-2.02-1.24-3.23-1.64c-1.21-0.39-2.44-0.69-3.69-0.88
			c-1.53-0.24-3.05-0.42-4.58-0.54c-1.53-0.12-3.07-0.18-4.65-0.18c-0.66,0-1.37,0.03-2.14,0.08c-0.76,0.05-1.55,0.12-2.37,0.2
			c-0.82,0.08-1.65,0.15-2.48,0.23c-0.83,0.08-1.65,0.13-2.44,0.15c-0.39,1.88-0.77,3.75-1.14,5.61c-0.38,1.86-0.72,3.6-1.04,5.2
			c-0.32,1.6-0.59,3.01-0.82,4.24c-0.23,1.22-0.38,2.12-0.44,2.68c-0.18,1.24-0.36,2.53-0.53,3.88c-0.17,1.34-0.26,2.57-0.26,3.68
			c0,0.55,0.02,1.03,0.07,1.44c0.05,0.41,0.12,0.81,0.24,1.18c2.1-0.35,4.3-0.9,6.63-1.65s4.91-1.59,7.76-2.5
			c1.5-0.48,2.92-0.97,4.25-1.47c1.33-0.5,2.54-1,3.62-1.49c1.08-0.49,2.03-0.97,2.84-1.44c0.81-0.47,1.45-0.91,1.93-1.32
			c0.16-0.13,0.4-0.38,0.73-0.75c0.33-0.37,0.71-0.82,1.13-1.34c0.42-0.52,0.85-1.1,1.3-1.72c0.44-0.62,0.85-1.25,1.21-1.9
			c0.36-0.64,0.67-1.26,0.91-1.86C107.75,27.91,107.87,27.37,107.87,26.89z"/>
	</g>
	<rect x="130.07" y="34.74" class="st4" width="76.98" height="19.97"/>
	<g>
		<path d="M130.95,41.21c0,0.18-0.14,0.51-0.43,1c-0.55,0.75-1.15,1.5-1.82,2.24s-1.38,1.44-2.14,2.11s-1.55,1.28-2.37,1.85
			c-0.82,0.57-1.65,1.06-2.49,1.47c-0.84,0.41-1.68,0.74-2.52,0.97c-0.84,0.24-1.65,0.35-2.45,0.35c-1.8,0-3.2-0.49-4.2-1.46
			c-1-0.97-1.51-2.44-1.51-4.4c0-0.79,0.06-1.56,0.17-2.32s0.31-1.51,0.58-2.25c0.27-0.74,0.62-1.47,1.05-2.18
			c0.43-0.71,0.96-1.41,1.59-2.08c0.23-0.25,0.5-0.49,0.81-0.72c0.31-0.23,0.64-0.44,0.99-0.62s0.72-0.33,1.1-0.44
			c0.38-0.11,0.76-0.17,1.14-0.17c0.56,0,1.04,0.1,1.44,0.3c0.4,0.2,0.74,0.47,1,0.81c0.26,0.34,0.46,0.72,0.58,1.16
			s0.19,0.9,0.19,1.38c0,0.9-0.35,1.82-1.04,2.79c-0.69,0.96-1.66,1.94-2.89,2.95c-0.4,0.32-0.86,0.67-1.39,1.05
			c-0.53,0.38-1.11,0.8-1.77,1.28c0.02,0.25,0.1,0.49,0.23,0.71s0.31,0.42,0.54,0.58c0.23,0.17,0.5,0.3,0.81,0.39
			c0.32,0.1,0.67,0.14,1.07,0.14c0.52,0,1.06-0.06,1.64-0.19c0.58-0.13,1.15-0.29,1.72-0.51c0.57-0.21,1.12-0.46,1.66-0.73
			c0.54-0.28,1.02-0.57,1.47-0.87c0.78-0.53,1.53-1.11,2.25-1.73c0.72-0.62,1.42-1.25,2.09-1.89l0.84-0.8
			c0.58-0.49,1.07-0.74,1.48-0.74c0.21,0,0.35,0.07,0.43,0.2C130.91,40.99,130.95,41.11,130.95,41.21z M118.65,38.43
			c0-0.22-0.02-0.43-0.07-0.63c-0.05-0.2-0.12-0.33-0.23-0.38c-0.36,0-0.74,0.15-1.14,0.44c-0.4,0.29-0.79,0.71-1.16,1.25
			s-0.7,1.19-0.99,1.95s-0.5,1.6-0.64,2.53c0.49-0.35,0.99-0.72,1.49-1.11c0.5-0.39,0.95-0.79,1.36-1.22
			c0.4-0.42,0.74-0.87,0.99-1.34S118.65,38.96,118.65,38.43z"/>
		<path d="M128.35,37.22c0.16-0.22,0.35-0.44,0.58-0.66s0.47-0.42,0.73-0.6s0.5-0.33,0.73-0.45c0.24-0.12,0.43-0.17,0.59-0.17
			c0.23,0,0.45,0.04,0.66,0.12c0.21,0.08,0.4,0.19,0.56,0.32c0.16,0.14,0.29,0.29,0.39,0.47c0.1,0.18,0.15,0.35,0.15,0.54
			c0,0.23-0.07,0.47-0.2,0.72s-0.29,0.49-0.49,0.72c-0.19,0.24-0.4,0.46-0.63,0.68c-0.23,0.22-0.44,0.42-0.63,0.6
			c-0.19,0.19-0.36,0.35-0.49,0.49c-0.13,0.14-0.2,0.25-0.2,0.33c0,0.12,0.12,0.3,0.35,0.55c0.23,0.25,0.52,0.52,0.87,0.82
			c0.35,0.3,0.73,0.61,1.15,0.94c0.42,0.32,0.82,0.61,1.2,0.88c0.34,0.23,0.63,0.46,0.88,0.69c0.25,0.23,0.4,0.46,0.45,0.68
			c0.39-0.29,0.73-0.55,1.02-0.79c0.29-0.23,0.6-0.49,0.93-0.79c0.33-0.29,0.7-0.64,1.13-1.06c0.43-0.41,0.96-0.95,1.6-1.62
			c0.35-0.35,0.68-0.69,0.99-1c0.31-0.32,0.6-0.59,0.87-0.82c0.27-0.23,0.52-0.42,0.74-0.55c0.23-0.14,0.42-0.2,0.59-0.2
			c0.26,0,0.45,0.09,0.55,0.28c0.11,0.19,0.16,0.43,0.16,0.72c0,0.11-0.08,0.31-0.24,0.59c-0.16,0.28-0.37,0.61-0.62,0.97
			c-0.26,0.37-0.55,0.76-0.88,1.19c-0.33,0.43-0.67,0.85-1.01,1.26s-0.67,0.8-0.99,1.15c-0.32,0.36-0.61,0.65-0.86,0.88
			c-0.04,0.04-0.14,0.14-0.31,0.29s-0.35,0.33-0.58,0.54c-0.22,0.21-0.46,0.43-0.72,0.66c-0.26,0.24-0.5,0.46-0.73,0.68
			c-0.23,0.22-0.44,0.41-0.61,0.57c-0.18,0.17-0.3,0.28-0.38,0.35c-0.05,0.05-0.17,0.17-0.35,0.36c-0.18,0.19-0.4,0.42-0.65,0.68
			c-0.25,0.26-0.51,0.54-0.8,0.83c-0.28,0.29-0.55,0.57-0.8,0.83c-0.25,0.26-0.47,0.49-0.66,0.68s-0.32,0.32-0.39,0.38
			c-0.6,0.51-1.19,0.94-1.76,1.29s-1.17,0.52-1.79,0.52c-0.29,0-0.57-0.03-0.82-0.09s-0.47-0.15-0.66-0.26
			c-0.19-0.11-0.34-0.25-0.44-0.41s-0.16-0.35-0.16-0.56c0-0.35,0.12-0.67,0.37-0.97s0.56-0.57,0.93-0.82
			c0.37-0.26,0.78-0.5,1.22-0.72s0.86-0.45,1.25-0.66c0.63-0.35,1.1-0.75,1.4-1.2S132,47.2,132,46.76c0-0.32-0.2-0.68-0.61-1.08
			c-0.4-0.4-1.08-0.88-2.03-1.46c-0.38-0.23-0.72-0.49-1.02-0.76s-0.57-0.55-0.78-0.83s-0.38-0.55-0.5-0.82
			c-0.12-0.27-0.17-0.5-0.17-0.7c0-0.37,0.02-0.71,0.07-1c0.05-0.3,0.13-0.59,0.24-0.88s0.26-0.6,0.45-0.91
			C127.83,37.99,128.07,37.63,128.35,37.22z"/>
		<path d="M155.12,41.98c0,0.23-0.09,0.53-0.28,0.88c-0.18,0.36-0.44,0.75-0.76,1.19c-0.32,0.44-0.7,0.91-1.14,1.4
			c-0.44,0.5-0.92,1.01-1.43,1.53c-0.56,0.57-1.16,1.14-1.81,1.69c-0.65,0.55-1.35,1.09-2.08,1.6c-0.73,0.5-1.44,0.89-2.14,1.17
			c-0.7,0.28-1.37,0.42-2,0.42c-0.74,0-1.37-0.12-1.92-0.35c-0.54-0.24-1-0.56-1.39-0.97s-0.7-0.88-0.94-1.4
			c-0.24-0.53-0.43-1.09-0.58-1.68s-0.24-1.19-0.29-1.79s-0.08-1.18-0.08-1.72c0-0.21,0.02-0.53,0.05-0.95s0.08-0.87,0.13-1.34
			c0.06-0.47,0.12-0.92,0.19-1.36c0.07-0.44,0.14-0.78,0.21-1.03c0.16-0.49,0.52-0.96,1.09-1.4c0.55-0.42,1.16-0.63,1.83-0.63
			c0.68,0,1.02,0.39,1.02,1.18c0,0.37-0.03,0.77-0.1,1.19c-0.07,0.42-0.14,0.83-0.23,1.23c-0.14,0.73-0.23,1.4-0.28,1.99
			c-0.05,0.59-0.08,1.11-0.08,1.56c0,0.51,0.03,1.01,0.09,1.49c0.06,0.48,0.16,0.91,0.28,1.29c0.12,0.38,0.27,0.68,0.46,0.91
			s0.4,0.35,0.65,0.35c0.32,0,0.64-0.03,0.98-0.08c0.34-0.06,0.74-0.2,1.21-0.45c0.9-0.47,1.87-1.11,2.89-1.92
			c0.36-0.28,0.76-0.62,1.22-1c0.46-0.39,0.91-0.79,1.36-1.19s0.88-0.81,1.28-1.2c0.4-0.39,0.71-0.73,0.95-1.01
			c0.03-0.05,0.08-0.11,0.13-0.19c0.06-0.08,0.12-0.15,0.2-0.23c0.07-0.08,0.16-0.15,0.24-0.2c0.09-0.06,0.18-0.08,0.26-0.08
			c0.17,0,0.29,0.02,0.37,0.07s0.17,0.18,0.26,0.42C155.06,41.6,155.12,41.81,155.12,41.98z M145.31,29.56
			c0,0.33-0.05,0.65-0.16,0.94c-0.11,0.3-0.26,0.58-0.46,0.84c-0.4,0.53-1.01,0.8-1.84,0.8c-0.29,0-0.59-0.03-0.9-0.08
			s-0.58-0.12-0.82-0.21c-0.24-0.09-0.44-0.21-0.6-0.35c-0.16-0.14-0.24-0.3-0.24-0.48c0-0.31,0.08-0.64,0.25-0.99
			c0.17-0.35,0.39-0.67,0.65-0.97c0.27-0.3,0.56-0.54,0.88-0.74c0.32-0.2,0.63-0.29,0.92-0.29c0.37,0,0.69,0.02,0.98,0.07
			s0.52,0.12,0.72,0.23s0.34,0.27,0.45,0.47C145.26,29,145.31,29.25,145.31,29.56z"/>
		<path d="M162.3,40.76c0,0.52-0.02,1.16-0.06,1.91c-0.04,0.75-0.11,1.62-0.19,2.62c-0.05,0.61-0.13,1.34-0.22,2.17
			c-0.09,0.83-0.21,1.68-0.35,2.54c-0.14,0.86-0.3,1.7-0.48,2.51c-0.18,0.82-0.38,1.52-0.6,2.13c-0.22,0.59-0.5,1.16-0.85,1.69
			c-0.35,0.53-0.76,1-1.24,1.41c-0.48,0.41-1.02,0.73-1.63,0.97c-0.61,0.24-1.28,0.35-2.02,0.35c-0.64,0-1.28-0.08-1.91-0.25
			c-0.63-0.17-1.23-0.38-1.8-0.66c-0.57-0.27-1.09-0.58-1.58-0.93s-0.9-0.71-1.26-1.09c-0.36-0.38-0.64-0.75-0.84-1.12
			c-0.2-0.37-0.3-0.71-0.3-1.03c0-0.59,0.3-0.89,0.91-0.89c0.15,0,0.28,0.03,0.4,0.09s0.23,0.13,0.32,0.21
			c0.09,0.08,0.18,0.17,0.26,0.26c0.08,0.09,0.15,0.17,0.21,0.23c0.46,0.41,0.92,0.75,1.36,1.03c0.45,0.27,0.9,0.49,1.35,0.66
			c0.45,0.17,0.91,0.28,1.38,0.35c0.47,0.07,0.95,0.11,1.44,0.11c0.61,0,1.11-0.15,1.5-0.45c0.39-0.3,0.7-0.69,0.94-1.18
			c0.24-0.48,0.42-1.02,0.55-1.62c0.13-0.59,0.24-1.18,0.34-1.75v0.02c0.12-0.72,0.22-1.42,0.3-2.1c0.08-0.67,0.15-1.33,0.21-1.96
			c-0.4,0.41-0.88,0.8-1.45,1.15c-0.57,0.35-1.16,0.66-1.79,0.91c-0.63,0.26-1.25,0.46-1.88,0.6c-0.63,0.15-1.21,0.22-1.75,0.22
			c-0.2,0-0.45-0.03-0.75-0.08c-0.3-0.05-0.58-0.13-0.85-0.25c-0.27-0.12-0.5-0.27-0.69-0.47c-0.19-0.2-0.29-0.44-0.29-0.73
			c0-0.57,0.1-1.24,0.3-1.99c0.2-0.75,0.45-1.51,0.76-2.28c0.31-0.77,0.66-1.51,1.04-2.22c0.38-0.71,0.76-1.31,1.14-1.79
			c0.5-0.66,1.06-1.27,1.66-1.81s1.2-1.01,1.81-1.4c0.6-0.39,1.19-0.69,1.75-0.91c0.56-0.21,1.06-0.32,1.49-0.32
			c0.35,0,0.73,0.03,1.14,0.1s0.8,0.17,1.16,0.32c0.36,0.15,0.66,0.35,0.9,0.61s0.36,0.58,0.36,0.96c0,0.19-0.01,0.41-0.03,0.66
			s-0.04,0.51-0.07,0.79c-0.03,0.28-0.05,0.56-0.07,0.85C162.31,40.2,162.3,40.49,162.3,40.76z M158.72,43.05
			c0.04-0.24,0.09-0.53,0.13-0.85c0.05-0.33,0.09-0.68,0.13-1.06c0.04-0.38,0.07-0.78,0.09-1.2c0.02-0.42,0.03-0.84,0.03-1.28
			c0-0.11-0.06-0.21-0.17-0.29c-0.12-0.08-0.25-0.12-0.41-0.12c-0.18,0-0.46,0.15-0.85,0.44s-0.82,0.69-1.3,1.19
			c-0.48,0.5-0.97,1.09-1.48,1.76c-0.51,0.67-0.98,1.38-1.4,2.14c-0.12,0.2-0.23,0.44-0.33,0.72c-0.11,0.28-0.2,0.56-0.28,0.86
			c-0.08,0.3-0.16,0.6-0.21,0.9c-0.06,0.3-0.1,0.58-0.13,0.83c0.58-0.12,1.2-0.29,1.86-0.5c0.66-0.21,1.25-0.46,1.77-0.74
			c0.29-0.16,0.58-0.35,0.87-0.57s0.54-0.46,0.78-0.71c0.24-0.25,0.44-0.51,0.6-0.76S158.67,43.29,158.72,43.05z"/>
		<path d="M185.23,46.16c0.09,0,0.17,0.05,0.23,0.16c0.06,0.11,0.09,0.28,0.09,0.54c0,0.39-0.13,0.82-0.4,1.28
			c-0.27,0.46-0.66,0.89-1.18,1.29c-0.52,0.4-1.16,0.74-1.93,1c-0.77,0.27-1.65,0.4-2.65,0.4c-0.94,0-1.78-0.14-2.52-0.43
			s-1.38-0.73-1.91-1.34s-0.93-1.38-1.22-2.32c-0.29-0.94-0.44-2.07-0.47-3.39c-0.47,0.38-0.96,0.84-1.45,1.38s-0.96,1.08-1.4,1.64
			c-0.44,0.55-0.84,1.07-1.19,1.55s-0.62,0.86-0.81,1.12c-0.27,0.39-0.5,0.72-0.67,0.99c-0.17,0.27-0.34,0.48-0.5,0.65
			c-0.16,0.17-0.34,0.29-0.54,0.36c-0.2,0.08-0.47,0.11-0.8,0.11c-0.3,0-0.58-0.05-0.84-0.14c-0.25-0.09-0.47-0.21-0.65-0.35
			c-0.18-0.14-0.33-0.3-0.43-0.48c-0.1-0.18-0.15-0.35-0.15-0.54c0-0.17,0.01-0.37,0.03-0.6c0.02-0.23,0.05-0.47,0.09-0.71
			c0.04-0.24,0.07-0.48,0.11-0.72c0.04-0.24,0.07-0.45,0.1-0.64c0.04-0.25,0.09-0.52,0.13-0.8c0.05-0.28,0.1-0.59,0.16-0.94
			s0.12-0.72,0.17-1.14c0.06-0.42,0.11-0.88,0.17-1.4c0.06-0.6,0.12-1.19,0.18-1.76c0.06-0.57,0.13-1.15,0.21-1.76
			c0.05-0.35,0.12-0.68,0.2-0.97c0.08-0.3,0.21-0.55,0.36-0.76c0.16-0.21,0.36-0.38,0.61-0.5c0.25-0.12,0.58-0.18,0.98-0.18
			c0.36,0,0.64,0.04,0.85,0.12c0.21,0.08,0.37,0.19,0.47,0.32c0.11,0.14,0.17,0.29,0.2,0.47c0.03,0.18,0.04,0.35,0.04,0.54
			c0,0.1,0,0.19-0.01,0.27c-0.01,0.08-0.01,0.16-0.02,0.23c-0.01,0.16-0.04,0.36-0.08,0.59s-0.11,0.56-0.2,0.97
			s-0.21,0.97-0.37,1.67c-0.09,0.4-0.19,0.82-0.3,1.24c-0.11,0.42-0.2,0.83-0.29,1.21c-0.09,0.38-0.17,0.73-0.23,1.03
			c-0.06,0.31-0.11,0.55-0.13,0.72c0.25-0.28,0.55-0.63,0.88-1.05c0.34-0.42,0.67-0.84,1.01-1.28s0.66-0.85,0.98-1.24
			s0.58-0.71,0.8-0.95c0.36-0.38,0.71-0.74,1.05-1.09s0.7-0.64,1.06-0.9c0.37-0.26,0.76-0.46,1.17-0.6
			c0.41-0.15,0.86-0.22,1.36-0.22c0.28,0,0.51,0.03,0.68,0.09c0.17,0.06,0.3,0.14,0.39,0.25c0.09,0.11,0.15,0.23,0.17,0.36
			c0.03,0.14,0.04,0.28,0.04,0.43v0.24c0,0.06-0.01,0.2-0.04,0.43c-0.03,0.23-0.06,0.47-0.09,0.73c-0.04,0.26-0.07,0.51-0.09,0.74
			c-0.03,0.23-0.04,0.38-0.04,0.45c0,0.77,0.06,1.5,0.19,2.17c0.13,0.67,0.32,1.26,0.59,1.76c0.27,0.5,0.61,0.89,1.03,1.18
			c0.42,0.29,0.93,0.43,1.51,0.43c0.41,0,0.77-0.02,1.07-0.07c0.3-0.05,0.6-0.12,0.89-0.23c0.29-0.11,0.59-0.25,0.89-0.42
			c0.3-0.18,0.66-0.39,1.06-0.64c0.15-0.11,0.3-0.21,0.46-0.3c0.14-0.08,0.29-0.15,0.45-0.2C184.9,46.19,185.07,46.16,185.23,46.16z
			"/>
	</g>
</g>
<g>
	<g>
		<linearGradient id="SVGID_3_" gradientUnits="userSpaceOnUse" x1="251.198" y1="31.0099" x2="251.198" y2="31.0099">
			<stop  offset="0" style="stop-color:#2484C6"/>
			<stop  offset="1" style="stop-color:#2484C6;stop-opacity:0"/>
		</linearGradient>
		<path class="st5" d="M251.2,31.01"/>
	</g>
</g>
</svg>
