<?xml version="1.0" encoding="utf-8"?>
<!-- Generator: Adobe Illustrator 23.0.1, SVG Export Plug-In . SVG Version: 6.00 Build 0)  -->
<svg version="1.1" id="Layer_1" xmlns="http://www.w3.org/2000/svg" xmlns:xlink="http://www.w3.org/1999/xlink" x="0px" y="0px"
	 viewBox="0 0 172 111" style="enable-background:new 0 0 172 111;" xml:space="preserve">
<style type="text/css">
	.st0{fill:#F7F5E6;}
	.st1{fill:#333A56;stroke:#F7F5E6;stroke-width:2;stroke-linecap:round;stroke-miterlimit:10;}
	.st2{fill:#333A56;}
</style>
<g>
	<g>
		<g>
			<g>
				<g>
					<path class="st0" d="M6.66,12.88c52.83,0,105.66,0,158.5,0c-1.93-1.81-3.87-3.63-5.8-5.44c0,32.03,0,64.07,0,96.1
						c1.93-1.81,3.87-3.63,5.8-5.44c-52.83,0-105.66,0-158.5,0c1.93,1.81,3.87,3.63,5.8,5.44c0-32.03,0-64.07,0-96.1
						c0-7-11.6-7.01-11.6,0c0,32.03,0,64.07,0,96.1c0,2.94,2.66,5.44,5.8,5.44c52.83,0,105.66,0,158.5,0c3.13,0,5.8-2.49,5.8-5.44
						c0-32.03,0-64.07,0-96.1c0-2.94-2.66-5.44-5.8-5.44C112.32,2,59.49,2,6.66,2C-0.8,2-0.82,12.88,6.66,12.88z"/>
				</g>
			</g>
		</g>
		<g>
			<g>
				<path class="st0" d="M85.91,56.73L0,5.63h171.81L85.91,56.73z M13.32,9.25l72.59,43.18L158.5,9.25H13.32z"/>
			</g>
		</g>
		<g>
			<g>
				<path class="st1" d="M6.66,103.54"/>
			</g>
		</g>
		<g>
			<g>
				<path class="st1" d="M6.66,103.54"/>
			</g>
		</g>
		<g>
			<g>
				<line class="st2" x1="76.01" y1="48.7" x2="6.66" y2="103.54"/>
			</g>
			<g>
				<path class="st0" d="M6.66,105.36c-0.55,0-1.1-0.22-1.48-0.64c-0.69-0.77-0.58-1.91,0.23-2.56l69.35-54.85
					c0.82-0.65,2.04-0.55,2.72,0.22c0.69,0.77,0.58,1.91-0.23,2.56L7.9,104.93C7.54,105.22,7.1,105.36,6.66,105.36z"/>
			</g>
		</g>
		<g>
			<g>
				<line class="st2" x1="95.8" y1="48.7" x2="165.15" y2="103.54"/>
			</g>
			<g>
				<path class="st0" d="M165.15,105.36c-0.44,0-0.88-0.14-1.24-0.43L94.56,50.08c-0.82-0.65-0.92-1.79-0.23-2.56
					c0.69-0.77,1.91-0.86,2.72-0.22l69.35,54.85c0.82,0.65,0.92,1.79,0.23,2.56C166.25,105.14,165.7,105.36,165.15,105.36z"/>
			</g>
		</g>
	</g>
</g>
</svg>
