<svg id="Layer_1" data-name="Layer 1" xmlns="http://www.w3.org/2000/svg" viewBox="0 0 1236.43 338"><defs><style>.cls-1{fill:#a4ca39;}.cls-2{fill:#fff;}.cls-3,.cls-4{fill:#83d0d4;}.cls-4{stroke:#fff;stroke-linejoin:round;stroke-width:10px;}.cls-5{fill:#82cfd4;}</style></defs><title>Symbols</title><path d="M-243.24-480a85.42,85.42,0,0,1-3.1,16h0a83.49,83.49,0,0,1-80,59.6,83.54,83.54,0,0,1-78.4-54.6h0a87.57,87.57,0,0,1-3.8-13.8,68.51,68.51,0,0,0-.4,7.9,85.14,85.14,0,0,0,2.2,19,83.55,83.55,0,0,0,81.3,64.5,83.43,83.43,0,0,0,82-67.8,81.15,81.15,0,0,0,1.5-15.7A75.1,75.1,0,0,0-243.24-480Z" transform="translate(408.94 641.33)"/><path d="M-243.34-449.24a83.51,83.51,0,0,1-82,67.8,83.44,83.44,0,0,1-81.3-64.5,82.42,82.42,0,0,1,2-13.2,83.54,83.54,0,0,0,78.4,54.6,83.52,83.52,0,0,0,80-59.6A81.82,81.82,0,0,1-243.34-449.24Z" transform="translate(408.94 641.33)"/><path d="M-243.24-480a85.42,85.42,0,0,1-3.1,16,82,82,0,0,0-78.5-58.3,82.14,82.14,0,0,0-79.9,63.4,87.57,87.57,0,0,1-3.8-13.8,83.54,83.54,0,0,1,83.1-75.6A83.3,83.3,0,0,1-243.24-480Z" transform="translate(408.94 641.33)"/><circle cx="82.59" cy="177.39" r="51"/><path class="cls-1" d="M14.75-505.74h-137c0-35.9,30.7-65,68.5-65S14.75-541.64,14.75-505.74Z" transform="translate(408.94 641.33)"/><path class="cls-1" d="M-5.25-385.74h-97a20.06,20.06,0,0,1-20-20v-96h137v96A20.06,20.06,0,0,1-5.25-385.74Z" transform="translate(408.94 641.33)"/><path class="cls-1" d="M-142.25-427.74h0a13,13,0,0,1-13-13v-52a13,13,0,0,1,13-13h0a13,13,0,0,1,13,13v52A13,13,0,0,1-142.25-427.74Z" transform="translate(408.94 641.33)"/><path class="cls-1" d="M-75.25-346.74h0a13,13,0,0,1-13-13v-52a13,13,0,0,1,13-13h0a13,13,0,0,1,13,13v52A13,13,0,0,1-75.25-346.74Z" transform="translate(408.94 641.33)"/><path class="cls-1" d="M-30.25-346.74h0a13,13,0,0,1-13-13v-52a13,13,0,0,1,13-13h0a13,13,0,0,1,13,13v52A13,13,0,0,1-30.25-346.74Z" transform="translate(408.94 641.33)"/><path class="cls-1" d="M34.75-427.74h0a13,13,0,0,1-13-13v-52a13,13,0,0,1,13-13h0a13,13,0,0,1,13,13v52A13,13,0,0,1,34.75-427.74Z" transform="translate(408.94 641.33)"/><circle class="cls-2" cx="328.19" cy="108.09" r="4.5"/><circle class="cls-2" cx="383.19" cy="108.09" r="4.5"/><path class="cls-1" d="M-75.55-548.74h0a2,2,0,0,1-2.6-1L-95.95-591a2,2,0,0,1,1-2.6h0a2,2,0,0,1,2.6,1l17.8,41.3A1.9,1.9,0,0,1-75.55-548.74Z" transform="translate(408.94 641.33)"/><path class="cls-1" d="M-27.25-548.84h0a1.93,1.93,0,0,1-1-2.6l18.4-41.1a1.93,1.93,0,0,1,2.6-1h0a1.93,1.93,0,0,1,1,2.6l-18.4,41.1A2,2,0,0,1-27.25-548.84Z" transform="translate(408.94 641.33)"/><path d="M377.19-464.84a125.6,125.6,0,0,1-42.9,94.7h0a125.63,125.63,0,0,1-68.6,30.5,139.36,139.36,0,0,1-14.5.8,120.77,120.77,0,0,1-17.1-1.2,125.43,125.43,0,0,1-67.1-31.1,125.61,125.61,0,0,1-41.8-93.8,126,126,0,0,1,126-126A126.07,126.07,0,0,1,377.19-464.84Z" transform="translate(408.94 641.33)"/><polygon class="cls-2" points="700.63 77.49 648.13 234.49 753.13 234.49 700.63 77.49"/><polygon class="cls-2" points="618.63 77.49 566.13 234.49 671.13 234.49 618.63 77.49"/><path d="M250.39-375.14c-3,13.4-8.3,25.9-16.3,35.1a125.43,125.43,0,0,1-67.1-31.1,126.5,126.5,0,0,1-1.5-35.8c.3-3.3.7-6.7,1.3-10,6.9-42.1,31.8-60.2,51.4-54.3,12.8,3.9,24.1,18.1,30.1,36.9a84.77,84.77,0,0,1,2.4,9c.1.5.2.9.3,1.4a102.67,102.67,0,0,1,2,17.1A125.44,125.44,0,0,1,250.39-375.14Z" transform="translate(408.94 641.33)"/><path d="M334.29-370.14h0a125.63,125.63,0,0,1-68.6,30.5c-7.6-9.5-12.6-22.1-15.3-35.4h0a125.78,125.78,0,0,1-2.2-31.7,103.82,103.82,0,0,1,1.9-15.1c.2-1.1.5-2.3.8-3.4h0q1.05-4.35,2.4-8.4c6.1-18.1,17.2-31.7,29.7-35.5,19.6-6,44.5,12.1,51.4,54.3.4,2.7.8,5.4,1.1,8A133.6,133.6,0,0,1,334.29-370.14Z" transform="translate(408.94 641.33)"/><rect class="cls-3" x="898.43" width="338" height="338"/><path class="cls-4" d="M730.66-404.83a37.51,37.51,0,0,0-37.5-37.5,37.36,37.36,0,0,0-14.6,3c.1-1,.1-2,.1-3,0-22.1-20.6-40-46-40-23.6,0-43.1,15.5-45.7,35.5a38.6,38.6,0,0,0-10.8-1.5,40.46,40.46,0,0,0-40.5,40.5,40.46,40.46,0,0,0,40.5,40.5h117.5A37.54,37.54,0,0,0,730.66-404.83Z" transform="translate(408.94 641.33)"/><rect class="cls-2" x="1080.6" y="67" width="15" height="42"/><path class="cls-5" d="M683.66-571.33v36h-9v-36h9m6-6h-21v48h21v-48Z" transform="translate(408.94 641.33)"/><rect class="cls-2" x="988.6" y="160" width="42" height="15"/><path class="cls-5" d="M618.66-478.33v9h-36v-9h36m6-6h-48v21h48v-21Z" transform="translate(408.94 641.33)"/><rect class="cls-2" x="1148.6" y="160" width="42" height="15"/><path class="cls-5" d="M778.66-478.33v9h-36v-9h36m6-6h-48v21h48v-21Z" transform="translate(408.94 641.33)"/><rect class="cls-2" x="1080.6" y="224" width="15" height="40"/><path class="cls-5" d="M683.66-414.33v34h-9v-34h9m6-6h-21v46h21v-46Z" transform="translate(408.94 641.33)"/><rect class="cls-2" x="615.63" y="-548.31" width="15" height="40" transform="translate(965.02 927.21) rotate(-45)"/><path class="cls-5" d="M614.36-543.53l24,24-6.4,6.4-24-24,6.4-6.4m0-8.5-4.2,4.2-6.4,6.4-4.2,4.2,4.2,4.2,24,24,4.2,4.2,4.2-4.2,6.4-6.4,4.2-4.2-4.2-4.2-24-24-4.2-4.2Z" transform="translate(408.94 641.33)"/><rect class="cls-2" x="606.13" y="-426.81" width="40" height="15" transform="translate(888.83 961.26) rotate(-45)"/><path class="cls-5" d="M635-434.53l6.4,6.4-24,24-6.4-6.4,24-24m0-8.5-4.2,4.2-24,24-4.2,4.2,4.2,4.2,6.4,6.4,4.2,4.2,4.2-4.2,24-24,4.2-4.2-4.2-4.2-6.4-6.4L635-443Z" transform="translate(408.94 641.33)"/><rect class="cls-2" x="716.13" y="-537.81" width="40" height="15" transform="translate(999.53 1006.53) rotate(-45)"/><path class="cls-5" d="M745-545.53l6.4,6.4-24,24-6.4-6.4,24-24m0-8.5-4.2,4.2-24,24-4.2,4.2,4.2,4.2,6.4,6.4,4.2,4.2,4.2-4.2,24-24,4.2-4.2-4.2-4.2-6.4-6.4L745-554Z" transform="translate(408.94 641.33)"/><rect class="cls-2" x="727.63" y="-435.31" width="15" height="40" transform="translate(917.92 1039.5) rotate(-45)"/><path class="cls-5" d="M726.36-430.53l24,24-6.4,6.4-24-24,6.4-6.4m0-8.5-4.2,4.2-6.4,6.4-4.2,4.2,4.2,4.2,24,24,4.2,4.2,4.2-4.2,6.4-6.4,4.2-4.2-4.2-4.2-24-24-4.2-4.2Z" transform="translate(408.94 641.33)"/><ellipse class="cls-2" cx="1089.6" cy="166.5" rx="59" ry="57.5"/><path class="cls-5" d="M680.66-528.33c30.4,0,55,24,55,53.5s-24.6,53.5-55,53.5-55-24-55-53.5,24.6-53.5,55-53.5m0-8c-34.7,0-63,27.6-63,61.5s28.3,61.5,63,61.5,63-27.6,63-61.5-28.3-61.5-63-61.5Z" transform="translate(408.94 641.33)"/><ellipse class="cls-3" cx="1088.99" cy="167.1" rx="45.4" ry="44.1"/></svg>